<svg enable-background="new 0 0 271 274" viewBox="0 0 271 274" xmlns="http://www.w3.org/2000/svg"><path d="m135.5 17.5c-66 0-119.5 53.5-119.5 119.5s53.5 119.5 119.5 119.5 119.5-53.5 119.5-119.5-53.5-119.5-119.5-119.5zm111.7 119.5c0 61.7-50 111.7-111.7 111.7s-111.7-50-111.7-111.7 50-111.7 111.7-111.7 111.7 50 111.7 111.7z"/><g transform="translate(7.304985 3.108504)"><path d="m186.1 83.2c1.6 1.7 4 4.6 5.3 6.3l24.2-15.4c-1.2-1.6-3.1-4-4.6-5.7l-15.3 10.1-1 .9.8-1.1 6.8-13.5-4.8-4.8-13.5 6.8-1.1.8.9-1 10.1-15.3c-1.8-1.5-3.5-2.9-5.7-4.6l-15.4 24.2c1.9 1.5 4.5 3.7 6.1 5.2l14.5-7.5.9-.7-.7.9z"/><path d="m131.2 52.6 6.6-14.8.4-1.3-.1 1.4.7 19.8c2.3.2 4.7.5 7.1.9l-1.1-29.3c-3.3-.4-6.6-.6-9.9-.8l-6.5 16.2-.2 1.2-.2-1.2-6.5-16.2c-3.3.1-6.6.4-9.9.8l-1.1 29.3c2.4-.4 4.8-.7 7.1-.9l.7-19.8-.1-1.4.4 1.3 6.6 14.8z"/><path d="m77.7 75.9c3.8-4 6-8.7 2.2-13.1-2.1-2.4-5.6-2.9-8.5-1.7l-.3.1.1-.3c.4-1.1.7-4.8-2.4-7.3-1.5-1.2-3.4-1.7-5.3-1.5-3.6.4-6.3 2.8-13.9 11.2-2.3 2.5-5.6 6.5-7.6 9.1l20.7 19.6c6.9-7.6 9.6-10.4 15-16.1zm-26.9-4.8c4.2-5.1 8.6-9.7 10.6-11.5.6-.6 1.3-1.2 2.2-1.4 1.4-.4 2.8.6 3.1 2s-.6 2.7-1.5 3.8c-2.3 2.5-10.4 11-10.4 11zm8.1 7.7s7.9-8.3 10.4-11c1-1.1 1.7-1.7 2.4-2 .9-.4 1.9-.5 2.8.1s1.3 1.6 1.1 2.6c-.3 1.2-1.2 2.3-2 3.2-1.1 1.2-10.4 11.1-10.4 11.1z"/></g><path d="m135.5 66.2v70.8h-70.8c0-39.2 31.6-70.8 70.8-70.8z"/><path d="m206.3 137c0 39.2-31.7 70.8-70.8 70.8v-70.8z"/></svg>