<svg enable-background="new 0 0 142.3 142.3" height="20" viewBox="0 0 142.3 142.3" width="20" xmlns="http://www.w3.org/2000/svg"><path d="m72.6 70.8 3.1-1.9 39.6 27.1z"/><path d="m70.3 69.3-2.9-1.7 3.3-51.7z"/><path d="m66.8 69.1-13.1 10.9 15.7-9.3z"/><path d="m71.1.6c-39 0-70.6 31.6-70.6 70.6s31.6 70.6 70.6 70.6 70.6-31.6 70.6-70.6-31.6-70.6-70.6-70.6zm0 137.3c-16.1 0-31.2-5.4-42.5-15.2-10.9-9.6-19.4-24.9-21.5-41.1 5 30.9 31.7 54.4 64 54.4 35.8 0 64.8-29 64.8-64.8 0-14.9-5.5-29.4-14-40.3 8.5 6.6 15.9 25.3 15.9 40.3.1 36.9-29.8 66.7-66.7 66.7zm-6.1-71.8 5.7-58.5h.4.1l.6 61.6 9.8-5.9-9.8-55.7c34.8.3 62.9 28.7 62.9 63.5 0 11.2-2.9 21.7-8 30.9l-44.1-36.9-4.2 2.4 48 35.1c-.1.2-.2.4-.4.6l-54-31.1v10.9l53.6 20.7c-11.1 18.5-31.4 30.9-54.5 30.9s-43.4-12.4-54.5-30.8l53.6-20.8v-11l-54 31c-.1-.2-.2-.4-.4-.6l47.8-35-4.2-2.4-44 36.7c-5-9.1-7.9-19.5-7.9-30.7 0-34.6 27.7-62.7 62.1-63.5l-8.6 56.3zm6.1-61.7c-36.8 0-66.7 29.9-66.7 66.7 0 15 5.4 29.1 13.7 41.4 2.8 5.3 5.8 8.5 9.9 12.8-15.9-12.7-26.2-32.3-26.2-54.2 0-38.3 31-69.3 69.3-69.3s69.9 32.4 68.7 69.3c-.9-36-32.4-66.7-68.7-66.7z"/></svg>