<svg height="20" viewBox="0 0 100 100" width="20" xmlns="http://www.w3.org/2000/svg"><path d="m49.9407668 84.246087c-18.7477956 0-34.2974122-15.5434149-34.2974122-34.2837981 0-.9744853.0447604-1.940063.1272844-2.8954641l28.6975719 1.7899417-12.4123323 8.5719054c-.1680511.1183074-.2788179.3129513-.2788179.5330407 0 .358753.2915335.6500758.6504313.6500758h50.679377c-3.8969648 14.6414426-17.4001118 25.6342986-33.1661022 25.6342986m0-68.5688718c18.7479233 0 34.2975559 15.5446866 34.2975559 34.2850737 0 .9668506-.0426677 1.926068-.1246965 2.8751141l-28.6697604-1.8217559 12.4405272-8.5210172c.1691853-.1183137.2786102-.3129517.2786102-.5330395 0-.3587545-.2901438-.6500838-.6477157-.6500838h-50.7405591c3.8982748-14.6414355 17.400048-25.6342914 33.1660384-25.6342914m49.1891693 38.1143133-9.3834185-.5966445c.0854632-1.0660813.1309744-2.1448854.1309744-3.2325951 0-22.048039-17.8798402-39.9207975-39.9367252-39.9207975-19.0838179 0-35.0394569 13.3819896-38.9923802 31.2700152h-7.36883388c-.48233227 0-.9138179.2289964-1.18739617.585204l-2.19289137 3.0265022c-.09873802.1272127-.15776358.2862403-.15776358.4592543 0 .4147273.33477636.7493062.74968051.7493062l9.34654949.5826602c-.0865814 1.0711697-.1323802 2.1537837-.1323802 3.2478554 0 22.0467564 17.8798563 39.9195219 39.9354154 39.9195219 19.0838977 0 35.0394728-13.3819896 38.993754-31.2700224h7.4057188c.4835783 0 .913738-.2289882 1.1874601-.5851969l2.1940735-3.026501c.098738-.1272134.1578274-.2862404.1578274-.4592557 0-.4147264-.3360223-.7493063-.7496645-.7493063" fill="#1a171b"/></svg>