<svg height="20" viewBox="0 0 100 100" width="20" xmlns="http://www.w3.org/2000/svg"><path d="m37.4290909 1.05590909c-.3104545.56-2.3454545 4.21409091-4.5218182 8.12045455-2.1763636 3.90590906-4.8827272 8.76409086-6.0140909 10.79545456-1.1313636 2.0309091-3.3045454 5.93-4.8290909 8.6645454-1.5245454 2.7345455-3.9113636 7.0172728-5.3045454 9.5172728-1.3931819 2.5-3.4309091 6.1563636-4.5286364 8.1259091l-1.9959091 3.580909.9081818 1.6277273c.4995455.895 3.3895455 6.0590909 6.4222727 11.4759091 3.0331819 5.4168182 7.7204546 13.79 10.4159091 18.6077273 4.5445455 8.1213636 7.8727273 14.0663636 9.5827273 17.1168182l.7031818 1.2545454 11.6663637-.0022727 11.6668181-.0018182.4859091-.8740909c.9186364-1.6527273 6.0586364-10.845 17.6709091-31.6027273 2.3163637-4.1409091 5.4777273-9.795 7.0254546-12.565l2.8131818-5.0359091-2.8618182-5.1436363c-4.0195454-7.2254546-19.1995454-34.5195455-22.2813636-40.06318185l-2.5663637-4.61681818h-11.9463636-11.9459091zm27.2045455 5.53954546c1.8122727 3.24227272 4.8063636 8.60090905 6.6540909 11.90818185 1.8477272 3.3072727 4.1572727 7.4409091 5.1327272 9.1859091 8.3063637 14.8586363 12.2286364 21.8931818 12.2754546 22.015.0495454.1281818-1.0913636.1440909-10.4559091.1440909h-10.5113636l-.4190909-.7340909c-.23-.4036364-1.0386364-1.799091-1.7963637-3.1013637-2.66-4.5704545-7.4604545-12.8309091-10.2086363-17.5663636-1.5263637-2.63-2.9354546-5.0531818-3.1313637-5.385l-.3563636-.6027273.28-.6572727c.1540909-.3618182.9859091-2.2213637 1.8486363-4.1322727 2.9263637-6.4818182 5.619091-12.5895455 5.619091-12.74545459 0-.03136364-.2663637-.05545455-.5918182-.05363636l-.5918182.00318181-1.8131818 3.19272728c-.9972728 1.75636363-4.4440909 7.81681816-7.6595455 13.46772726-6.8190909 11.9845455-7.3327273 12.8877273-12.2940909 21.6086364-2.065 3.6295454-3.7540909 6.6231818-3.7540909 6.6522727 0 .0295455 1.0118182.0545455 2.2490909.0559091l2.2490909.0022727 1.1731818 2.1045455c1.0927273 1.9595454 9.1327273 16.3359091 10.7368182 19.1977272.3936364.7031819.7468182 1.2781819.7845455 1.2781819.0372727 0 1.8577272-3.1959091 4.0454545-7.1022728 2.1872727-3.9063636 5.0268182-8.9772727 6.31-11.2686363l2.3327273-4.1668182 2.4836364-.0254546c1.3663636-.0136363 2.4836363-.0022727 2.4836363.0259091 0 .0277273-2.9263636 5.1313637-6.5031818 11.3413637s-7.0554545 12.2495454-7.7304545 13.4213636-2.7622728 4.7940909-4.6386364 8.0490909c-1.8763636 3.2554546-4.21 7.3036364-5.1854546 8.9963637l-1.7740909 3.0777272-.6377272.0281818c-.4936364.0218182-.6259091.0004546-.5868182-.0945454.0277273-.0677273 1.7804545-4.0122727 3.8945454-8.7654546 2.1145455-4.7531818 3.855-8.6740909 3.8677273-8.7136363.0177273-.0540909-11.3572727-19.9363637-15.1004545-26.3940909l-.5490909-.9468182-10.8404546-.0472727-10.8404545-.0472728 2.75-4.9245454c1.5122727-2.7081818 3.0618181-5.4781818 3.4427272-6.155.3813637-.6772727 2.1109091-3.7668182 3.8436364-6.8659091 5.27-9.4254546 8.8445455-15.8168182 10.4609091-18.7022727.8463636-1.5104546 2.55-4.55772731 3.7868182-6.77090913 1.2363636-2.21363636 2.4595454-4.39772727 2.7181818-4.85318182l.47-.82863636h11.3918182 11.3913636zm-14.0072728 23.01318185c.2668182.4809091 2.8609091 5.1145454 5.7654546 10.2968181 2.9045454 5.1822728 5.345 9.5568182 5.4236363 9.7213637l.1431819.2990909-2.0372728 3.6309091c-1.1209091 1.9968182-3.7313636 6.6563636-5.8013636 10.3540909-2.07 3.6981818-3.8345455 6.8390909-3.9209091 6.9804545l-.1568182.2568182-2.025-3.6186363c-5.4777272-9.7881819-7.7904545-13.9172728-8.7822727-15.6781819-.5968182-1.06-1.0659091-1.9768181-1.0427273-2.0377272.0231818-.0604546 2.2690909-4.0727273 4.9904546-8.9154546 2.7213636-4.8431818 5.3722727-9.5618182 5.8909091-10.4863636.5181818-.9245455.9709091-1.68 1.0054545-1.6790909.0345455.0009091.2809091.395.5472727.8759091" fill-rule="evenodd"/></svg>